<?xml version="1.0" standalone="no"?>
<svg viewBox="0 0 200 200" xmlns="http://www.w3.org/2000/svg">
  <path fill="#8A3FFC" d="M36.5,-62.9C44.3,-58.8,45.6,-42.9,48.2,-30.5C50.8,-18,54.7,-9,54.5,-0.1C54.3,8.8,49.9,17.5,46.7,28.9C43.5,40.3,41.5,54.4,33.9,63.7C26.3,73,13.2,77.5,-0.6,78.6C-14.4,79.7,-28.9,77.4,-40.2,70.2C-51.5,63.1,-59.7,51.2,-66.9,38.6C-74.1,26.1,-80.2,13.1,-79.3,0.5C-78.4,-12,-70.3,-24,-62.6,-35.5C-54.9,-47.1,-47.5,-58.3,-37.1,-61C-26.8,-63.6,-13.4,-57.7,0.5,-58.6C14.4,-59.4,28.7,-67,36.5,-62.9Z" transform="translate(100 100)" />
</svg>
